Coordinates
version=1
nRows=20
nColumns=38
inDegrees=no

Units are S.I. units (second, meters, Newtons, ...)
If the header above contains a line with 'inDegrees', this indicates whether rotational values are in degrees (yes) or radians (no).

endheader
time	pelvis_tilt	pelvis_list	pelvis_rotation	pelvis_tx	pelvis_ty	pelvis_tz	hip_flexion_r	hip_adduction_r	hip_rotation_r	knee_angle_r	ankle_angle_r	subtalar_angle_r	mtp_angle_r	hip_flexion_l	hip_adduction_l	hip_rotation_l	knee_angle_l	ankle_angle_l	subtalar_angle_l	mtp_angle_l	lumbar_extension	lumbar_bending	lumbar_rotation	arm_flex_r	arm_add_r	arm_rot_r	elbow_flex_r	pro_sup_r	wrist_flex_r	wrist_dev_r	arm_flex_l	arm_add_l	arm_rot_l	elbow_flex_l	pro_sup_l	wrist_flex_l	wrist_dev_l
0	0.142478	-0.0463066	-3.02763	-0.253141	0.91249	0.0310143	0.505685	-0.345102	-0.369988	0.809878	0.349855	0	0	0.582021	-0.0310842	-0.0572328	0.811028	0.352868	0	0	-0.0821211	0.00252588	-0.118154	0.461038	-0.361846	1.35009	0.706753	0.78425	0	0	0.530121	-0.286306	1.4627	0.861016	0.899836	0	0
0.00997996	0.135997	-0.0431668	-3.03472	-0.251132	0.910292	0.0298418	0.510104	-0.339716	-0.361352	0.823722	0.3547	0	0	0.583019	-0.0402899	-0.0621936	0.826052	0.359897	0	0	-0.0939141	0.00405099	-0.110982	0.472681	-0.363975	1.34321	0.721168	0.791644	0	0	0.541462	-0.288477	1.45494	0.874921	0.905127	0	0
0.0199599	0.129472	-0.0399936	-3.04198	-0.249122	0.908093	0.0286675	0.514528	-0.334171	-0.352555	0.837531	0.3595	0	0	0.583928	-0.0496324	-0.0672909	0.841054	0.366921	0	0	-0.105786	0.00556087	-0.103655	0.484385	-0.366078	1.33638	0.735555	0.798993	0	0	0.55285	-0.290645	1.44723	0.888787	0.910389	0	0
0.0299399	0.122828	-0.0367359	-3.04964	-0.247108	0.905892	0.0274904	0.518954	-0.328227	-0.343356	0.851244	0.364187	0	0	0.584597	-0.0593179	-0.0727283	0.855991	0.373928	0	0	-0.117868	0.00703386	-0.095935	0.496242	-0.368123	1.32966	0.749869	0.806235	0	0	0.564358	-0.292795	1.43963	0.90255	0.915546	0	0
0.0399198	0.115984	-0.0333469	-3.05795	-0.24509	0.903686	0.0263122	0.523372	-0.321638	-0.333511	0.864798	0.368681	0	0	0.584865	-0.0695532	-0.0787174	0.87081	0.3809	0	0	-0.130301	0.0084412	-0.0875696	0.508346	-0.370079	1.32312	0.764064	0.813301	0	0	0.576065	-0.294899	1.43219	0.916134	0.920506	0	0
0.0498998	0.108891	-0.0298079	-3.06709	-0.24307	0.901467	0.0251394	0.527793	-0.314237	-0.322834	0.87814	0.372921	0	0	0.584613	-0.0804755	-0.0854182	0.885453	0.387816	0	0	-0.143185	0.00974322	-0.0783715	0.520763	-0.371921	1.31678	0.778107	0.820141	0	0	0.588032	-0.296928	1.42493	0.929463	0.925216	0	0
0.0598798	0.101577	-0.0261509	-3.07711	-0.241051	0.899228	0.0239838	0.532273	-0.306013	-0.311276	0.891256	0.376878	0	0	0.583844	-0.0920805	-0.0928751	0.899872	0.394646	0	0	-0.156506	0.0108889	-0.0682975	0.533502	-0.373639	1.31063	0.791978	0.826767	0	0	0.600286	-0.298854	1.4179	0.942462	0.929695	0	0
0.0698597	0.0941892	-0.0224748	-3.08781	-0.239039	0.896957	0.0228629	0.536929	-0.297199	-0.299007	0.904185	0.380585	0	0	0.582751	-0.104148	-0.100935	0.914049	0.401355	0	0	-0.170072	0.011827	-0.0575429	0.546496	-0.375223	1.30466	0.805654	0.833227	0	0	0.612785	-0.300648	1.4111	0.955067	0.933979	0	0
0.0798397	0.0870409	-0.018956	-3.09863	-0.237045	0.894643	0.0217979	0.54195	-0.288352	-0.286524	0.917035	0.384159	0	0	0.581797	-0.116168	-0.109154	0.928004	0.407896	0	0	-0.183429	0.0125285	-0.0466448	0.559569	-0.37667	1.29886	0.819098	0.839575	0	0	0.625384	-0.302272	1.40455	0.967215	0.938093	0	0
0.0898196	0.0806135	-0.0158426	-3.10861	-0.235077	0.892272	0.0208119	0.547546	-0.280419	-0.274765	0.929974	0.387831	0	0	0.581741	-0.127283	-0.116695	0.941815	0.414221	0	0	-0.195844	0.0130185	-0.0365481	0.572356	-0.378014	1.29303	0.832313	0.845957	0	0	0.637828	-0.303656	1.39825	0.978821	0.942107	0	0
0.0997996	0.0751761	-0.0132743	-3.11718	-0.233146	0.889835	0.0199266	0.553828	-0.273941	-0.26426	0.943099	0.391723	0	0	0.583014	-0.137004	-0.123091	0.955532	0.4203	0	0	-0.206905	0.0133173	-0.0277887	0.584654	-0.379283	1.28707	0.845313	0.852445	0	0	0.649962	-0.304766	1.39217	0.989854	0.946101	0	0
0.10978	0.0708293	-0.0113028	-3.1241	-0.231261	0.887321	0.0191594	0.560824	-0.269151	-0.255236	0.956442	0.395882	0	0	0.585784	-0.145125	-0.128148	0.96918	0.426122	0	0	-0.216443	0.0134454	-0.0205925	0.596385	-0.380491	1.28097	0.858109	0.859034	0	0	0.66171	-0.305593	1.38629	1.00031	0.950142	0	0
0.11976	0.0675499	-0.00991095	-3.12937	-0.229429	0.884727	0.018522	0.568482	-0.266059	-0.247725	0.969993	0.400305	0	0	0.59003	-0.151644	-0.131852	0.982768	0.431693	0	0	-0.224471	0.0134313	-0.0149745	0.607556	-0.381649	1.27475	0.870714	0.865667	0	0	0.673044	-0.306146	1.38054	1.01024	0.954275	0	0
0.129739	0.0652323	-0.00903499	-3.1331	-0.227655	0.88205	0.0180194	0.576704	-0.264531	-0.241632	0.983714	0.404954	0	0	0.59561	-0.156693	-0.134305	0.996294	0.437032	0	0	-0.231119	0.0133109	-0.0108171	0.618234	-0.382759	1.26849	0.88314	0.872275	0	0	0.683973	-0.306456	1.37487	1.01968	0.95852	0	0
0.139719	0.0637263	-0.00858586	-3.1355	-0.225939	0.879294	0.0176499	0.585365	-0.264349	-0.236787	0.997553	0.409777	0	0	0.602313	-0.160478	-0.135673	1.00975	0.442164	0	0	-0.236589	0.013123	-0.00792955	0.628524	-0.383819	1.26229	0.895395	0.878793	0	0	0.69453	-0.306565	1.36923	1.02874	0.962878	0	0
0.149699	0.0628687	-0.0084683	-3.13679	-0.224281	0.876462	0.0174062	0.594344	-0.26526	-0.232978	1.01145	0.414716	0	0	0.609907	-0.163239	-0.136155	1.02313	0.447119	0	0	-0.241102	0.0129025	-0.0060904	0.638544	-0.384824	1.25625	0.907483	0.885167	0	0	0.704753	-0.306521	1.36356	1.03749	0.967335	0	0
0.159679	0.0625029	-0.00859298	-3.13722	-0.222678	0.873563	0.0172766	0.603531	-0.267005	-0.229981	1.02536	0.419723	0	0	0.618165	-0.16521	-0.135953	1.03643	0.45193	0	0	-0.244879	0.0126765	-0.00507563	0.648408	-0.385765	1.25046	0.919413	0.891354	0	0	0.714684	-0.306373	1.35779	1.04602	0.971866	0	0
0.169659	0.0624917	-0.00888229	-3.13701	-0.221125	0.870605	0.0172461	0.61284	-0.26935	-0.227582	1.03922	0.424759	0	0	0.626888	-0.166601	-0.135251	1.04962	0.456631	0	0	-0.24811	0.0124649	-0.00467928	0.658218	-0.386635	1.24499	0.931192	0.897329	0	0	0.724358	-0.306162	1.35189	1.05442	0.976443	0	0
0.179639	0.0627253	-0.00927303	-3.13637	-0.219616	0.867597	0.0172983	0.622206	-0.272091	-0.225592	1.05301	0.429797	0	0	0.635915	-0.16759	-0.134199	1.06272	0.46125	0	0	-0.25095	0.0122825	-0.00472717	0.668051	-0.387425	1.23988	0.942825	0.903091	0	0	0.733805	-0.305926	1.3458	1.06274	0.981038	0	0
0.189619	0.0631266	-0.00971964	-3.13543	-0.218145	0.864548	0.0174163	0.631596	-0.275071	-0.223856	1.06669	0.434816	0	0	0.645132	-0.168308	-0.132915	1.07571	0.465808	0	0	-0.25351	0.0121366	-0.00508122	0.677956	-0.388133	1.23512	0.954328	0.908659	0	0	0.74305	-0.305692	1.33952	1.07104	0.985625	0	0
